<svg width="48" height="48" viewBox="0 0 48 48" fill="none" xmlns="http://www.w3.org/2000/svg">
<path d="M32.1429 30.8539H31.5V21.7467C31.5 17.9673 28.7063 14.8441 25.0714 14.3244V13.2825C25.0714 12.6905 24.592 12.211 24 12.211C23.408 12.211 22.9286 12.6905 22.9286 13.2825V14.3244C19.2938 14.8441 16.5 17.9673 16.5 21.7467V30.8539H15.8571C15.383 30.8539 15 31.2369 15 31.711V32.5682C15 32.686 15.0964 32.7825 15.2143 32.7825H21C21 34.4378 22.3446 35.7825 24 35.7825C25.6554 35.7825 27 34.4378 27 32.7825H32.7857C32.9036 32.7825 33 32.686 33 32.5682V31.711C33 31.2369 32.617 30.8539 32.1429 30.8539ZM24 34.0682C23.2902 34.0682 22.7143 33.4923 22.7143 32.7825H25.2857C25.2857 33.4923 24.7098 34.0682 24 34.0682ZM18.4286 30.8539V21.7467C18.4286 20.2575 19.0071 18.8592 20.0598 17.8066C21.1125 16.7539 22.5107 16.1753 24 16.1753C25.4893 16.1753 26.8875 16.7539 27.9402 17.8066C28.9929 18.8592 29.5714 20.2575 29.5714 21.7467V30.8539H18.4286Z" fill="black" fill-opacity="0.85"/>
</svg>
