<svg width="48" height="48" viewBox="0 0 48 48" fill="none" xmlns="http://www.w3.org/2000/svg">
<path d="M29.6792 16.1325V14.0619C29.6792 13.8825 29.473 13.7833 29.3337 13.8932L17.2587 23.3244C17.1561 23.4042 17.0731 23.5064 17.016 23.6231C16.9589 23.7399 16.9292 23.8681 16.9292 23.9981C16.9292 24.128 16.9589 24.2563 17.016 24.373C17.0731 24.4898 17.1561 24.592 17.2587 24.6717L29.3337 34.103C29.4757 34.2128 29.6792 34.1137 29.6792 33.9342V31.8637C29.6792 31.7325 29.6176 31.6066 29.5158 31.5262L19.873 23.9994L29.5158 16.47C29.6176 16.3896 29.6792 16.2637 29.6792 16.1325Z" fill="black" fill-opacity="0.85"/>
</svg>
