<svg width="48" height="48" viewBox="0 0 48 48" fill="none" xmlns="http://www.w3.org/2000/svg">
<path d="M34.4999 14.5665H13.4999C13.3821 14.5665 13.2856 14.663 13.2856 14.7808V16.4951C13.2856 16.613 13.3821 16.7094 13.4999 16.7094H34.4999C34.6178 16.7094 34.7142 16.613 34.7142 16.4951V14.7808C34.7142 14.663 34.6178 14.5665 34.4999 14.5665ZM34.4999 31.2808H13.4999C13.3821 31.2808 13.2856 31.3772 13.2856 31.4951V33.2094C13.2856 33.3272 13.3821 33.4237 13.4999 33.4237H34.4999C34.6178 33.4237 34.7142 33.3272 34.7142 33.2094V31.4951C34.7142 31.3772 34.6178 31.2808 34.4999 31.2808ZM34.4999 22.9237H13.4999C13.3821 22.9237 13.2856 23.0201 13.2856 23.138V24.8522C13.2856 24.9701 13.3821 25.0665 13.4999 25.0665H34.4999C34.6178 25.0665 34.7142 24.9701 34.7142 24.8522V23.138C34.7142 23.0201 34.6178 22.9237 34.4999 22.9237Z" fill="black" fill-opacity="0.85"/>
</svg>
