<svg width="48" height="48" viewBox="0 0 48 48" fill="none" xmlns="http://www.w3.org/2000/svg">
<path d="M34.6504 33.1774L27.6942 26.2211C28.7736 24.8256 29.3576 23.1193 29.3576 21.3247C29.3576 19.1765 28.5192 17.1622 27.0031 15.6434C25.487 14.1247 23.4674 13.289 21.3218 13.289C19.1763 13.289 17.1567 14.1274 15.6406 15.6434C14.1218 17.1595 13.2861 19.1765 13.2861 21.3247C13.2861 23.4702 14.1245 25.4899 15.6406 27.0059C17.1567 28.5247 19.1736 29.3604 21.3218 29.3604C23.1165 29.3604 24.8201 28.7765 26.2156 27.6997L33.1718 34.6533C33.1922 34.6737 33.2165 34.6899 33.2431 34.7009C33.2698 34.7119 33.2983 34.7176 33.3272 34.7176C33.3561 34.7176 33.3846 34.7119 33.4113 34.7009C33.4379 34.6899 33.4622 34.6737 33.4826 34.6533L34.6504 33.4881C34.6708 33.4677 34.687 33.4435 34.6981 33.4168C34.7091 33.3901 34.7148 33.3616 34.7148 33.3327C34.7148 33.3039 34.7091 33.2753 34.6981 33.2486C34.687 33.222 34.6708 33.1978 34.6504 33.1774ZM25.5647 25.5675C24.429 26.7006 22.9236 27.3247 21.3218 27.3247C19.7201 27.3247 18.2147 26.7006 17.079 25.5675C15.946 24.4318 15.3218 22.9265 15.3218 21.3247C15.3218 19.7229 15.946 18.2149 17.079 17.0818C18.2147 15.9488 19.7201 15.3247 21.3218 15.3247C22.9236 15.3247 24.4317 15.9461 25.5647 17.0818C26.6977 18.2175 27.3218 19.7229 27.3218 21.3247C27.3218 22.9265 26.6977 24.4345 25.5647 25.5675Z" fill="black" fill-opacity="0.85"/>
</svg>
